<svg id="clock" xmlns="http://www.w3.org/2000/svg" width="21.493" height="21.493" viewBox="0 0 21.493 21.493">
  <path id="Path_5026" data-name="Path 5026" d="M18.346,3.148a10.747,10.747,0,0,0-15.2,15.2,10.747,10.747,0,0,0,15.2-15.2Zm-.475,14.723A10.075,10.075,0,0,1,3.623,3.623,10.075,10.075,0,0,1,17.871,17.871Z" fill="#75797c"/>
  <path id="Path_5027" data-name="Path 5027" d="M32.672,41.4a8.733,8.733,0,0,1,13.582-7.261.336.336,0,1,0,.374-.558A9.4,9.4,0,0,0,34.394,47.672a.336.336,0,1,0,.5-.448A8.717,8.717,0,0,1,32.672,41.4Z" transform="translate(-30.657 -30.657)" fill="#75797c"/>
  <path id="Path_5028" data-name="Path 5028" d="M125.855,128.145a.336.336,0,0,0-.558.374,8.732,8.732,0,0,1-12.759,11.635.336.336,0,1,0-.423.522,9.4,9.4,0,0,0,13.741-12.53Z" transform="translate(-107.288 -122.623)" fill="#75797c"/>
  <path id="Path_5029" data-name="Path 5029" d="M392.1,87.58a8.808,8.808,0,0,1,.647.643.336.336,0,0,0,.5-.451,9.508,9.508,0,0,0-.7-.692.336.336,0,0,0-.448.5Z" transform="translate(-375.538 -83.342)" fill="#75797c"/>
  <path id="Path_5030" data-name="Path 5030" d="M248.336,65.679a.336.336,0,0,0,.336-.336V64.336a.336.336,0,0,0-.672,0v1.007A.336.336,0,0,0,248.336,65.679Z" transform="translate(-237.589 -61.313)" fill="#75797c"/>
  <path id="Path_5031" data-name="Path 5031" d="M248,408.336v1.008a.336.336,0,0,0,.672,0v-1.008a.336.336,0,0,0-.672,0Z" transform="translate(-237.589 -390.873)" fill="#75797c"/>
  <path id="Path_5032" data-name="Path 5032" d="M65.679,248.336a.336.336,0,0,0-.336-.336H64.336a.336.336,0,1,0,0,.672h1.007A.336.336,0,0,0,65.679,248.336Z" transform="translate(-61.313 -237.589)" fill="#75797c"/>
  <path id="Path_5033" data-name="Path 5033" d="M408,248.336a.336.336,0,0,0,.336.336h1.008a.336.336,0,0,0,0-.672h-1.008A.336.336,0,0,0,408,248.336Z" transform="translate(-390.873 -237.589)" fill="#75797c"/>
  <path id="Path_5034" data-name="Path 5034" d="M157.129,89.691l-.5-.873a.336.336,0,1,0-.582.336l.5.873a.336.336,0,1,0,.582-.336Z" transform="translate(-149.45 -84.929)" fill="#75797c"/>
  <path id="Path_5035" data-name="Path 5035" d="M328.626,386.732a.336.336,0,1,0-.582.336l.5.873a.336.336,0,0,0,.582-.336Z" transform="translate(-314.23 -370.336)" fill="#75797c"/>
  <path id="Path_5036" data-name="Path 5036" d="M88.987,329.175a.335.335,0,0,0,.168-.045l.873-.5a.336.336,0,0,0-.336-.582l-.873.5a.336.336,0,0,0,.168.627Z" transform="translate(-84.929 -314.231)" fill="#75797c"/>
  <path id="Path_5037" data-name="Path 5037" d="M386.9,157.175a.335.335,0,0,0,.168-.045l.873-.5a.336.336,0,0,0-.336-.582l-.873.5a.336.336,0,0,0,.168.627Z" transform="translate(-370.336 -149.451)" fill="#75797c"/>
  <path id="Path_5038" data-name="Path 5038" d="M329.006,88.694a.336.336,0,0,0-.459.123l-.5.873a.336.336,0,1,0,.582.336l.5-.873A.336.336,0,0,0,329.006,88.694Z" transform="translate(-314.23 -84.928)" fill="#75797c"/>
  <path id="Path_5039" data-name="Path 5039" d="M157.007,386.608a.336.336,0,0,0-.459.123l-.5.873a.336.336,0,1,0,.582.336l.5-.873A.336.336,0,0,0,157.007,386.608Z" transform="translate(-149.45 -370.335)" fill="#75797c"/>
  <path id="Path_5040" data-name="Path 5040" d="M386.731,328.625l.873.5a.336.336,0,1,0,.336-.582l-.873-.5a.336.336,0,0,0-.336.582Z" transform="translate(-370.336 -314.23)" fill="#75797c"/>
  <path id="Path_5041" data-name="Path 5041" d="M90.026,156.547l-.873-.5a.336.336,0,1,0-.336.582l.873.5a.336.336,0,1,0,.336-.582Z" transform="translate(-84.929 -149.45)" fill="#75797c"/>
  <path id="Path_5042" data-name="Path 5042" d="M235.345,130.094a.336.336,0,0,0,.291-.5l-1.863-3.227a1.006,1.006,0,0,0-.43-1.6v-4.424a.336.336,0,1,0-.672,0v4.424a1.007,1.007,0,0,0,.52,1.94l1.863,3.226A.336.336,0,0,0,235.345,130.094Zm-2.674-4.385a.336.336,0,1,1,.336.336A.336.336,0,0,1,232.672,125.709Z" transform="translate(-222.261 -114.963)" fill="#75797c"/>
</svg>
