<svg id="female" xmlns="http://www.w3.org/2000/svg" width="66.842" height="82.024" viewBox="0 0 66.842 82.024">
  <g id="Group_36004" data-name="Group 36004" transform="translate(0)">
    <path id="Path_42327" data-name="Path 42327" d="M139.908,527.1q-.077-.875-.2-1.745s-.339-1.881-.4-2.168a12.467,12.467,0,0,0-5.581-7.608,16.606,16.606,0,0,0-1.6-.943c-.719-.378-11.579-3.947-11.862-4.036a8.581,8.581,0,0,1,.127,1.228c1.512,1.062,5.97,4.895,3.946,12.067,0,0-3.2-3.815-6.465-4.3-3.109,5.42-8.4,12.281-11.253,14.082-2.851-1.8-8.144-8.662-11.253-14.082-3.265.49-6.465,4.3-6.465,4.3-2.024-7.172,2.433-11,3.946-12.066a8.6,8.6,0,0,1,.127-1.228c-.283.089-11.143,3.658-11.862,4.035a16.634,16.634,0,0,0-1.6.943,12.465,12.465,0,0,0-5.58,7.608c-.065.287-.4,2.167-.4,2.168q-.127.87-.2,1.745c0,.024-.124,3.06-.124,3.078,0,0,.031,1.423.049,1.762a7.562,7.562,0,0,0,1.871,5.1,8.294,8.294,0,0,0,6.387,2.624q12.557-.006,25.114-.005t25.114.005a8.294,8.294,0,0,0,6.387-2.624,7.561,7.561,0,0,0,1.871-5.1c.018-.34.049-1.762.049-1.762C140.032,530.164,139.911,527.128,139.908,527.1Z" transform="translate(-73.19 -457.648)" fill="#0a4057"/>
    <path id="Path_42328" data-name="Path 42328" d="M181.025,35.323a9.816,9.816,0,0,1,.42,2.662,5.446,5.446,0,0,1-.067.824,34.277,34.277,0,0,1-2.176,3.92c2.948,3.179,6.853,3.916,10.7,4.728,1.139.24,2.3.384,3.533.543q.6.108,1.2.223l-1.957,5.72A16.823,16.823,0,0,0,200.7,67.368h.051a16.824,16.824,0,0,0,8.013-13.425L206.8,48.224q.6-.115,1.2-.223c1.234-.16,2.395-.3,3.533-.543,3.851-.812,7.756-1.549,10.7-4.728a34.312,34.312,0,0,1-2.176-3.921,5.438,5.438,0,0,1-.067-.824,9.817,9.817,0,0,1,.42-2.662c.247-.893.532-1.781.8-2.674A23.173,23.173,0,0,0,200.748,0V0H200.7V0a23.173,23.173,0,0,0-20.476,32.647C180.493,33.541,180.778,34.429,181.025,35.323Z" transform="translate(-167.302)" fill="#0a4057"/>
  </g>
</svg>
