<svg id="male" xmlns="http://www.w3.org/2000/svg" width="75.483" height="82.024" viewBox="0 0 75.483 82.024">
  <path id="Path_42329" data-name="Path 42329" d="M106.632,507.748h0a5.348,5.348,0,0,0-.251-1.016c-.828-3.184-2.724-8.988-3.582-11.585a6.092,6.092,0,0,0-.43-1.3v-.01h0a6.164,6.164,0,0,0-2.441-2.7h0c-.063-.042-.2-.115-.377-.21-.073-.032-.147-.073-.22-.1-2.084-.985-8.485-3.541-8.485-3.541h0c-3.205-1.383-6.515-2.566-9.9-3.771h0c-.607,2.514-6.337,19.2-7.249,21.516l-.723-15.5a9.633,9.633,0,0,0,.6-1.184l2.388-4.724a11.939,11.939,0,0,1-13.942.094l2.346,4.63a9.63,9.63,0,0,0,.6,1.184l-.723,15.5c-.922-2.315-6.662-19.012-7.259-21.526h0c-3.383,1.2-6.694,2.388-9.9,3.771h0s-6.4,2.566-8.485,3.541a2.119,2.119,0,0,0-.22.1,2.093,2.093,0,0,0-.377.21h0a6.248,6.248,0,0,0-2.441,2.713h0v.01a6.1,6.1,0,0,0-.429,1.3c-.859,2.6-2.755,8.391-3.582,11.585a5.544,5.544,0,0,0-.251,1.016h0a5.63,5.63,0,0,0-.073.943,6.178,6.178,0,0,0,6.18,6.18h5.9q12.664,0,25.329,0h31.9a6.178,6.178,0,0,0,6.18-6.18A7.007,7.007,0,0,0,106.632,507.748Z" transform="translate(-31.222 -432.851)" fill="#fff"/>
  <path id="Path_42330" data-name="Path 42330" d="M238.648,21.945c0-1.089.21-5.049.21-5.96A15.975,15.975,0,0,0,222.872,0h-.733a16,16,0,0,0-16,16c0,.911.21,4.86.21,5.96-.388.021-3.97-.838-3.582,3.446.817,9.092,4.284,7.333,4.389,7.333a23.574,23.574,0,0,0,6.955,11.208A15.693,15.693,0,0,0,222.17,47.8c.115,0,.22.011.335.011h0c.1,0,.22,0,.335-.011a15.72,15.72,0,0,0,8-3.813,23.494,23.494,0,0,0,7-11.25c.1,0,3.572,1.76,4.389-7.333C242.618,21.107,239.035,21.966,238.648,21.945Z" transform="translate(-184.775)" fill="#fff"/>
</svg>
