<svg xmlns="http://www.w3.org/2000/svg" width="32.654" height="23.335" viewBox="0 0 32.654 23.335">
  <g id="quot-right" transform="translate(0.5 0.5)">
    <path id="Path_4973" data-name="Path 4973" d="M7.018,9.412a7.017,7.017,0,0,0-.407,14.022c.064.688.016,2.561-1.779,5.166a.494.494,0,0,0,.057.63c.734.734,1.188,1.2,1.506,1.52.416.423.605.616.883.868a.494.494,0,0,0,.657.007,18.948,18.948,0,0,0,6.1-15.233C13.739,12.348,10.788,9.412,7.018,9.412Zm.6,21.165c-.135-.133-.288-.289-.515-.52-.275-.28-.653-.665-1.225-1.239,2.178-3.356,1.767-5.746,1.586-6.089a.512.512,0,0,0-.444-.272,6.028,6.028,0,0,1,0-12.056c3.238,0,5.773,2.55,6.03,6.063A18.069,18.069,0,0,1,7.615,30.577Z" transform="translate(-0.001 -9.412)" fill="#081839" stroke="#081839" stroke-width="1"/>
    <path id="Path_4974" data-name="Path 4974" d="M49.549,16.392h0c-.3-4.044-3.246-6.98-7.016-6.98a7.017,7.017,0,0,0-.407,14.022c.064.687.015,2.559-1.78,5.166a.494.494,0,0,0,.057.63c.731.731,1.184,1.193,1.5,1.516.418.426.608.62.887.873a.494.494,0,0,0,.657.006A18.949,18.949,0,0,0,49.549,16.392ZM43.13,30.577c-.136-.134-.291-.291-.519-.524-.275-.28-.651-.663-1.221-1.235,2.178-3.356,1.767-5.746,1.587-6.089a.514.514,0,0,0-.445-.272,6.028,6.028,0,1,1,0-12.056c3.237,0,5.773,2.55,6.03,6.064h0A18.073,18.073,0,0,1,43.13,30.577Z" transform="translate(-17.958 -9.412)" fill="#081839" stroke="#081839" stroke-width="1"/>
  </g>
</svg>
