<svg xmlns="http://www.w3.org/2000/svg" width="26.486" height="24.277" viewBox="0 0 26.486 24.277">
  <path id="star" d="M20.609,24.276A1.362,1.362,0,0,1,20,24.131l-6.752-3.412L6.49,24.131a1.354,1.354,0,0,1-1.391-.1,1.26,1.26,0,0,1-.526-1.252L5.86,15.569.4,10.466A1.252,1.252,0,0,1,.064,9.151a1.31,1.31,0,0,1,1.069-.872l7.55-1.061L12.056.653a1.4,1.4,0,0,1,2.373,0L17.8,7.218l7.551,1.061a1.31,1.31,0,0,1,1.069.872,1.252,1.252,0,0,1-.339,1.314l-5.457,5.1,1.287,7.209a1.26,1.26,0,0,1-.526,1.252,1.334,1.334,0,0,1-.779.246" fill="#ffbd02"/>
</svg>
