<svg xmlns="http://www.w3.org/2000/svg" width="23.503" height="23.489" viewBox="0 0 23.503 23.489">
  <path id="swap" d="M15.6,22.743a1.122,1.122,0,0,1-.227,1.175L11.1,28.189a1.095,1.095,0,0,1-1.522,0L5.307,23.917a1.121,1.121,0,0,1-.227-1.175,1.068,1.068,0,0,1,.988-.654h3.2V6.068a1.068,1.068,0,0,1,2.136,0v16.02h3.2a1.068,1.068,0,0,1,.988.654ZM28.189,9.579,23.917,5.307a1.081,1.081,0,0,0-1.522,0L18.123,9.579a1.121,1.121,0,0,0-.227,1.175,1.068,1.068,0,0,0,.988.654h3.2v16.02a1.068,1.068,0,0,0,2.136,0V11.408h3.2a1.068,1.068,0,0,0,.988-.654,1.121,1.121,0,0,0-.227-1.175Z" transform="translate(-4.994 28.492) rotate(-90)" fill="#fff"/>
</svg>
