<svg id="telephone" xmlns="http://www.w3.org/2000/svg" width="21.069" height="21.467" viewBox="0 0 21.069 21.467">
  <path id="Path_5050" data-name="Path 5050" d="M5.181,14.27A22.489,22.489,0,0,0,12.644,20.2a11.489,11.489,0,0,0,4.176,1.254c.1,0,.2.009.3.009A3.435,3.435,0,0,0,19.8,20.3a.1.1,0,0,0,.018-.022,11.388,11.388,0,0,1,.846-.89c.206-.2.416-.409.618-.623a2.169,2.169,0,0,0-.009-3.2l-2.634-2.673A2.118,2.118,0,0,0,17.1,12.17a2.189,2.189,0,0,0-1.56.716l-1.569,1.592c-.145-.085-.294-.16-.434-.231a5.394,5.394,0,0,1-.482-.267,16.7,16.7,0,0,1-3.966-3.665A9.73,9.73,0,0,1,7.745,8.145c.412-.378.8-.774,1.17-1.161.131-.138.267-.276.4-.414a2.3,2.3,0,0,0,.727-1.6,2.277,2.277,0,0,0-.727-1.6L8.012,2.042c-.153-.156-.3-.307-.447-.463-.289-.3-.592-.614-.89-.894A2.169,2.169,0,0,0,5.133,0a2.233,2.233,0,0,0-1.56.689L1.934,2.353a3.44,3.44,0,0,0-1,2.189A8.343,8.343,0,0,0,1.539,8.1,20.77,20.77,0,0,0,5.181,14.27ZM2,4.635a2.368,2.368,0,0,1,.7-1.512l1.63-1.655a1.172,1.172,0,0,1,.806-.378,1.113,1.113,0,0,1,.789.387c.294.276.57.565.868.872.149.156.3.311.456.472L8.551,4.146a1.215,1.215,0,0,1,.412.832,1.215,1.215,0,0,1-.412.832c-.136.138-.272.28-.408.418-.408.418-.789.814-1.21,1.192l-.022.022a.879.879,0,0,0-.219.988c0,.013.009.022.013.036A10.5,10.5,0,0,0,8.244,11a17.62,17.62,0,0,0,4.225,3.906,6.245,6.245,0,0,0,.578.32,5.4,5.4,0,0,1,.482.267l.048.027a.905.905,0,0,0,.425.111.924.924,0,0,0,.653-.3l1.639-1.664a1.153,1.153,0,0,1,.8-.4,1.1,1.1,0,0,1,.776.4l2.643,2.678a1.083,1.083,0,0,1-.013,1.677c-.184.2-.377.391-.583.592a12.727,12.727,0,0,0-.916.965,2.389,2.389,0,0,1-1.88.81c-.075,0-.153,0-.228-.009a10.438,10.438,0,0,1-3.778-1.148,21.365,21.365,0,0,1-7.1-5.649A19.879,19.879,0,0,1,2.552,7.735,7.27,7.27,0,0,1,2,4.635Z" transform="translate(-0.912 0)" fill="#081839"/>
</svg>
