<svg id="user" xmlns="http://www.w3.org/2000/svg" width="17.827" height="21.688" viewBox="0 0 17.827 21.688">
  <path id="Path_4988" data-name="Path 4988" d="M92.178,10.448a4.943,4.943,0,0,0,3.639-1.53,5.093,5.093,0,0,0,1.508-3.693A5.094,5.094,0,0,0,95.817,1.53a5.092,5.092,0,0,0-7.278,0,5.093,5.093,0,0,0-1.508,3.693,5.093,5.093,0,0,0,1.508,3.694A4.945,4.945,0,0,0,92.178,10.448ZM89.425,2.429a3.852,3.852,0,0,1,5.507,0,3.805,3.805,0,0,1,1.141,2.795,3.805,3.805,0,0,1-1.141,2.795,3.852,3.852,0,0,1-5.507,0,3.8,3.8,0,0,1-1.141-2.795A3.8,3.8,0,0,1,89.425,2.429Zm0,0" transform="translate(-83.4 0)" fill="#081839"/>
  <path id="Path_4989" data-name="Path 4989" d="M17.783,253.517a13.087,13.087,0,0,0-.173-1.37,10.933,10.933,0,0,0-.332-1.378,6.859,6.859,0,0,0-.558-1.285,4.837,4.837,0,0,0-.841-1.113,3.7,3.7,0,0,0-1.209-.771,4.122,4.122,0,0,0-1.543-.283,1.553,1.553,0,0,0-.836.36c-.251.166-.544.358-.871.57a4.958,4.958,0,0,1-1.127.5,4.317,4.317,0,0,1-2.758,0,4.942,4.942,0,0,1-1.127-.5c-.324-.21-.618-.4-.872-.571a1.552,1.552,0,0,0-.836-.36,4.118,4.118,0,0,0-1.543.284,3.7,3.7,0,0,0-1.209.771,4.838,4.838,0,0,0-.841,1.113,6.872,6.872,0,0,0-.558,1.285,10.958,10.958,0,0,0-.332,1.378,13,13,0,0,0-.173,1.371c-.028.414-.043.845-.043,1.281a3.63,3.63,0,0,0,1.054,2.725,3.761,3.761,0,0,0,2.715,1.005H14.057a3.761,3.761,0,0,0,2.715-1.005,3.629,3.629,0,0,0,1.054-2.725c0-.437-.015-.868-.043-1.281ZM15.909,256.6a2.531,2.531,0,0,1-1.852.655H3.769a2.531,2.531,0,0,1-1.852-.655,2.371,2.371,0,0,1-.665-1.8c0-.406.013-.808.04-1.193a11.723,11.723,0,0,1,.156-1.234,9.664,9.664,0,0,1,.292-1.215,5.594,5.594,0,0,1,.454-1.045,3.586,3.586,0,0,1,.618-.823,2.455,2.455,0,0,1,.8-.508,2.844,2.844,0,0,1,.986-.193c.044.024.122.069.248.153.257.17.554.365.882.577a6.159,6.159,0,0,0,1.415.642,5.55,5.55,0,0,0,3.528,0,6.167,6.167,0,0,0,1.416-.642c.336-.218.624-.406.881-.577.127-.084.2-.129.248-.153a2.845,2.845,0,0,1,.986.193,2.459,2.459,0,0,1,.8.508,3.575,3.575,0,0,1,.618.823,5.576,5.576,0,0,1,.454,1.045,9.643,9.643,0,0,1,.292,1.215,11.823,11.823,0,0,1,.156,1.235h0c.027.384.04.785.04,1.192a2.371,2.371,0,0,1-.665,1.8Zm0,0" transform="translate(0 -236.84)" fill="#081839"/>
</svg>
