<svg xmlns="http://www.w3.org/2000/svg" width="72" height="57" viewBox="0 0 72 57">
  <g id="whats-app" transform="translate(-1150.159 -60.67)">
    <rect id="Rectangle_6843" data-name="Rectangle 6843" width="72" height="57" transform="translate(1150.159 60.67)" fill="#29a99f"/>
    <g id="whatsapp" transform="translate(1170.902 73.913)">
      <g id="Group_36002" data-name="Group 36002">
        <path id="Path_42326" data-name="Path 42326" d="M15.261,0h-.008A15.248,15.248,0,0,0,2.9,24.2L1,29.868l5.864-1.875A15.254,15.254,0,1,0,15.261,0Zm8.878,21.545A4.305,4.305,0,0,1,21.144,23.7c-.8.17-1.838.305-5.344-1.148-4.484-1.858-7.371-6.414-7.6-6.709a8.714,8.714,0,0,1-1.812-4.6,4.871,4.871,0,0,1,1.56-3.713,2.217,2.217,0,0,1,1.56-.547c.189,0,.359.01.511.017.448.019.673.046.969.753.368.887,1.264,3.076,1.371,3.3a.908.908,0,0,1,.065.826,2.637,2.637,0,0,1-.494.7c-.225.259-.439.458-.664.736-.206.242-.439.5-.179.95a13.542,13.542,0,0,0,2.475,3.076,11.217,11.217,0,0,0,3.578,2.207.965.965,0,0,0,1.076-.17A18.461,18.461,0,0,0,19.413,17.8a.852.852,0,0,1,1.095-.332c.412.143,2.592,1.221,3.04,1.444s.744.332.852.521A3.8,3.8,0,0,1,24.139,21.545Z" fill="#fff"/>
      </g>
    </g>
  </g>
</svg>
